<svg width="7" height="14" viewBox="0 0 7 14" fill="none" xmlns="http://www.w3.org/2000/svg">
<path d="M5.54997 4.88006L2.10747 0.29006C1.96695 0.103809 1.77686 -0.000732422 1.57872 -0.000732422C1.38058 -0.000732422 1.1905 0.103809 1.04997 0.29006C0.979677 0.383023 0.923882 0.493624 0.885805 0.615483C0.847729 0.737343 0.828125 0.868048 0.828125 1.00006C0.828125 1.13207 0.847729 1.26278 0.885805 1.38464C0.923882 1.5065 0.979677 1.6171 1.04997 1.71006L4.49997 6.29006C4.57027 6.38302 4.62607 6.49362 4.66414 6.61548C4.70222 6.73734 4.72182 6.86805 4.72182 7.00006C4.72182 7.13207 4.70222 7.26278 4.66414 7.38464C4.62607 7.5065 4.57027 7.6171 4.49997 7.71006L1.04997 12.2901C0.908746 12.477 0.82901 12.7312 0.828307 12.9965C0.827603 13.2619 0.905991 13.5168 1.04622 13.7051C1.18646 13.8934 1.37705 13.9997 1.57607 14.0006C1.7751 14.0016 1.96625 13.897 2.10747 13.7101L5.54997 9.12006C5.97132 8.55756 6.20799 7.79506 6.20799 7.00006C6.20799 6.20506 5.97132 5.44256 5.54997 4.88006Z" fill="white"/>
</svg>
