<svg width="20" height="20" viewBox="0 0 20 20" fill="none" xmlns="http://www.w3.org/2000/svg">
<path d="M16.875 9.375H4.40656L9.18094 4.8275C9.43094 4.58937 9.44062 4.19375 9.2025 3.94375C8.96469 3.69406 8.56906 3.68406 8.31875 3.92219L2.86625 9.11594C2.63031 9.35219 2.5 9.66594 2.5 10C2.5 10.3337 2.63031 10.6478 2.87719 10.8944L8.31906 16.0775C8.44 16.1928 8.595 16.25 8.75 16.25C8.915 16.25 9.08 16.185 9.20281 16.0559C9.44094 15.8059 9.43125 15.4106 9.18125 15.1725L4.38688 10.625H16.875C17.22 10.625 17.5 10.345 17.5 10C17.5 9.655 17.22 9.375 16.875 9.375Z" fill="white"/>
</svg>
