<svg width="12" height="8" viewBox="0 0 12 8" fill="none" xmlns="http://www.w3.org/2000/svg">
<path fill-rule="evenodd" clip-rule="evenodd" d="M11.2247 0.775211C11.1689 0.719335 11.1027 0.675003 11.0298 0.644755C10.9569 0.614508 10.8788 0.598938 10.7999 0.598938C10.721 0.598938 10.6428 0.614508 10.5699 0.644755C10.497 0.675003 10.4308 0.719335 10.3751 0.775211L5.99988 5.15161L1.62468 0.775211C1.51202 0.662547 1.35921 0.599253 1.19988 0.599253C1.04055 0.599253 0.887743 0.662547 0.775079 0.775211C0.662415 0.887874 0.599121 1.04068 0.599121 1.20001C0.599121 1.35934 0.662415 1.51215 0.775079 1.62481L5.57508 6.42481C5.63081 6.48069 5.69702 6.52502 5.76992 6.55527C5.84281 6.58551 5.92096 6.60108 5.99988 6.60108C6.0788 6.60108 6.15695 6.58551 6.22984 6.55527C6.30273 6.52502 6.36894 6.48069 6.42468 6.42481L11.2247 1.62481C11.2806 1.56908 11.3249 1.50286 11.3551 1.42997C11.3854 1.35708 11.401 1.27893 11.401 1.20001C11.401 1.12109 11.3854 1.04294 11.3551 0.97005C11.3249 0.897156 11.2806 0.830945 11.2247 0.775211Z" fill="#303030"/>
</svg>
