<svg width="18" height="18" viewBox="0 0 18 18" fill="none" xmlns="http://www.w3.org/2000/svg">
<path fill-rule="evenodd" clip-rule="evenodd" d="M5.25909 3.42169L6.70453 5.69929C6.52987 5.86328 6.33935 6.0257 6.13431 6.20051C5.95808 6.35076 5.77112 6.51015 5.57429 6.68753C5.08642 7.12719 4.99219 7.8343 5.30793 8.38459C6.97757 11.2946 9.25485 12.6187 10.2738 13.0941C10.8877 13.3805 11.5547 13.1545 11.926 12.6864L12.9262 11.4256C12.9262 11.4256 12.927 11.4249 12.9285 11.4246C12.9301 11.4243 12.9328 11.4246 12.9328 11.4246C12.9328 11.4246 12.935 11.4251 12.9371 11.4264C13.5199 11.7826 14.3331 12.2667 15.08 12.6766C14.9459 13.4786 14.6377 13.9458 14.2979 14.2315C13.9412 14.5314 13.4798 14.6892 12.9652 14.7462C11.9377 14.86 10.8947 14.5513 10.6633 14.4761C10.408 14.3469 9.00849 13.6173 7.51327 12.4351C5.97146 11.216 4.42545 9.59136 3.83418 7.72802C3.40206 6.36623 3.565 5.40796 3.90464 4.74695C4.23297 4.10795 4.76429 3.67423 5.25909 3.42169ZM4.73621 2.07372C5.41738 1.75378 6.12173 2.08737 6.44982 2.60433L7.96196 4.98702C8.26766 5.4687 8.28862 6.17287 7.79164 6.65525C7.57864 6.86198 7.28231 7.11608 7.00656 7.35252C6.8552 7.48231 6.71003 7.60679 6.58825 7.71519C8.02524 10.1931 9.94639 11.3396 10.8202 11.7588L11.7928 10.5327C12.2521 9.95375 13.0698 9.81845 13.6924 10.199C14.2685 10.5511 15.0648 11.0249 15.7864 11.4206C16.2677 11.6845 16.612 12.2346 16.5145 12.8557C16.3393 13.9712 15.8817 14.7837 15.2295 15.3319C14.5883 15.871 13.8245 16.0997 13.1248 16.1772C11.7485 16.3296 10.4321 15.9169 10.1917 15.8372C10.1309 15.817 10.0803 15.7957 10.0261 15.7684C9.76799 15.6386 8.24715 14.8533 6.61529 13.563C5.0004 12.2862 3.17919 10.4391 2.45665 8.16213C1.92592 6.48956 2.08292 5.13341 2.61866 4.09074C3.14501 3.06636 3.99741 2.42073 4.73621 2.07372Z" fill="#FED506"/>
<path fill-rule="evenodd" clip-rule="evenodd" d="M11.2943 1.85459C10.9317 1.68877 10.5029 1.84729 10.3365 2.20864C10.1701 2.57 10.3292 2.99735 10.6918 3.16317C12.3693 3.93031 14.2894 5.37258 15.1667 7.3628C15.3272 7.7268 15.7534 7.89225 16.1187 7.73233C16.4839 7.57242 16.65 7.1477 16.4895 6.78369C15.4178 4.35262 13.1524 2.70429 11.2943 1.85459ZM10.7595 4.40855C10.4027 4.23075 9.96871 4.37489 9.79029 4.7305C9.61187 5.0861 9.7565 5.51852 10.1134 5.69633C10.7922 6.03456 11.262 6.35329 11.6413 6.73129C12.0206 7.10929 12.3404 7.57747 12.6798 8.25393C12.8583 8.60954 13.2922 8.75368 13.649 8.57588C14.0059 8.39807 14.1505 7.96566 13.9721 7.61005C13.5891 6.84674 13.1866 6.23508 12.6629 5.71322C12.1392 5.19136 11.5255 4.79021 10.7595 4.40855Z" fill="#FED506"/>
</svg>
