<svg width="18" height="18" viewBox="0 0 18 18" fill="none" xmlns="http://www.w3.org/2000/svg">
<path fill-rule="evenodd" clip-rule="evenodd" d="M12.6206 9.45798L9.3734 14.1859L6.10155 9.47375C5.56518 8.40879 5.50757 7.13898 5.94498 6.02313C7.21231 2.79019 11.4688 2.77902 12.7547 6.01273C13.1966 7.12397 13.1473 8.39179 12.6206 9.45798ZM13.8101 10.1403L10.1441 15.716L10.1435 15.7171L10.108 15.7891L9.76412 16.3034C9.59323 16.6493 9.13363 16.6512 8.9601 16.3066L8.65108 15.795L8.61497 15.7233L8.61445 15.7222L4.9173 10.1656C4.18554 8.71274 4.10692 6.98035 4.70369 5.458C6.43455 1.04254 12.2407 1.03459 13.9932 5.44152C14.5957 6.95673 14.5287 8.68555 13.8101 10.1403ZM10.0456 7.45268C10.0466 7.85352 9.7458 8.1792 9.37372 8.18011C9.00165 8.18102 8.69922 7.85682 8.69824 7.45598C8.69726 7.05514 8.9981 6.72945 9.37017 6.72854C9.74224 6.72763 10.0447 7.05184 10.0456 7.45268ZM11.3931 7.44937C11.396 8.65189 10.4935 9.62895 9.37728 9.63168C8.26105 9.63441 7.35377 8.6618 7.35083 7.45928C7.34788 6.25676 8.25038 5.27971 9.36661 5.27697C10.4828 5.27424 11.3901 6.24686 11.3931 7.44937Z" fill="#FED506"/>
</svg>
