<svg width="24" height="24" viewBox="0 0 24 24" fill="none" xmlns="http://www.w3.org/2000/svg">
<g clip-path="url(#clip0_164_2925)">
<path d="M6.46154 7.38462H0.923077C0.678262 7.38462 0.443473 7.28736 0.270363 7.11425C0.0972525 6.94114 0 6.70635 0 6.46154V0.923077C0 0.678262 0.0972525 0.443473 0.270363 0.270363C0.443473 0.0972525 0.678262 0 0.923077 0L6.46154 0C6.70635 0 6.94114 0.0972525 7.11425 0.270363C7.28736 0.443473 7.38462 0.678262 7.38462 0.923077V6.46154C7.38462 6.70635 7.28736 6.94114 7.11425 7.11425C6.94114 7.28736 6.70635 7.38462 6.46154 7.38462ZM1.84615 5.53846H5.53846V1.84615H1.84615V5.53846Z" fill="#06623B"/>
<path d="M6.46154 15.6923H0.923077C0.678262 15.6923 0.443473 15.5951 0.270363 15.4219C0.0972525 15.2488 0 15.014 0 14.7692V9.23077C0 8.98596 0.0972525 8.75117 0.270363 8.57806C0.443473 8.40495 0.678262 8.30769 0.923077 8.30769H6.46154C6.70635 8.30769 6.94114 8.40495 7.11425 8.57806C7.28736 8.75117 7.38462 8.98596 7.38462 9.23077V14.7692C7.38462 15.014 7.28736 15.2488 7.11425 15.4219C6.94114 15.5951 6.70635 15.6923 6.46154 15.6923ZM1.84615 13.8462H5.53846V10.1538H1.84615V13.8462Z" fill="#06623B"/>
<path d="M6.46154 24H0.923077C0.678262 24 0.443473 23.9028 0.270363 23.7296C0.0972525 23.5565 0 23.3217 0 23.0769V17.5385C0 17.2936 0.0972525 17.0589 0.270363 16.8857C0.443473 16.7126 0.678262 16.6154 0.923077 16.6154H6.46154C6.70635 16.6154 6.94114 16.7126 7.11425 16.8857C7.28736 17.0589 7.38462 17.2936 7.38462 17.5385V23.0769C7.38462 23.3217 7.28736 23.5565 7.11425 23.7296C6.94114 23.9028 6.70635 24 6.46154 24ZM1.84615 22.1538H5.53846V18.4615H1.84615V22.1538Z" fill="#06623B"/>
<path d="M14.7692 7.38462H9.23069C8.98588 7.38462 8.75109 7.28736 8.57798 7.11425C8.40487 6.94114 8.30762 6.70635 8.30762 6.46154V0.923077C8.30762 0.678262 8.40487 0.443473 8.57798 0.270363C8.75109 0.0972525 8.98588 0 9.23069 0L14.7692 0C15.014 0 15.2488 0.0972525 15.4219 0.270363C15.595 0.443473 15.6922 0.678262 15.6922 0.923077V6.46154C15.6922 6.70635 15.595 6.94114 15.4219 7.11425C15.2488 7.28736 15.014 7.38462 14.7692 7.38462ZM10.1538 5.53846H13.8461V1.84615H10.1538V5.53846Z" fill="#06623B"/>
<path d="M14.7692 15.6923H9.23069C8.98588 15.6923 8.75109 15.5951 8.57798 15.4219C8.40487 15.2488 8.30762 15.014 8.30762 14.7692V9.23077C8.30762 8.98596 8.40487 8.75117 8.57798 8.57806C8.75109 8.40495 8.98588 8.30769 9.23069 8.30769H14.7692C15.014 8.30769 15.2488 8.40495 15.4219 8.57806C15.595 8.75117 15.6922 8.98596 15.6922 9.23077V14.7692C15.6922 15.014 15.595 15.2488 15.4219 15.4219C15.2488 15.5951 15.014 15.6923 14.7692 15.6923ZM10.1538 13.8462H13.8461V10.1538H10.1538V13.8462Z" fill="#06623B"/>
<path d="M14.7692 24H9.23069C8.98588 24 8.75109 23.9028 8.57798 23.7296C8.40487 23.5565 8.30762 23.3217 8.30762 23.0769V17.5385C8.30762 17.2936 8.40487 17.0589 8.57798 16.8857C8.75109 16.7126 8.98588 16.6154 9.23069 16.6154H14.7692C15.014 16.6154 15.2488 16.7126 15.4219 16.8857C15.595 17.0589 15.6922 17.2936 15.6922 17.5385V23.0769C15.6922 23.3217 15.595 23.5565 15.4219 23.7296C15.2488 23.9028 15.014 24 14.7692 24ZM10.1538 22.1538H13.8461V18.4615H10.1538V22.1538Z" fill="#06623B"/>
<path d="M23.0768 7.38462H17.5383C17.2935 7.38462 17.0587 7.28736 16.8856 7.11425C16.7125 6.94114 16.6152 6.70635 16.6152 6.46154V0.923077C16.6152 0.678262 16.7125 0.443473 16.8856 0.270363C17.0587 0.0972525 17.2935 0 17.5383 0L23.0768 0C23.3216 0 23.5564 0.0972525 23.7295 0.270363C23.9026 0.443473 23.9998 0.678262 23.9998 0.923077V6.46154C23.9998 6.70635 23.9026 6.94114 23.7295 7.11425C23.5564 7.28736 23.3216 7.38462 23.0768 7.38462ZM18.4614 5.53846H22.1537V1.84615H18.4614V5.53846Z" fill="#06623B"/>
<path d="M23.0768 15.6923H17.5383C17.2935 15.6923 17.0587 15.5951 16.8856 15.4219C16.7125 15.2488 16.6152 15.014 16.6152 14.7692V9.23077C16.6152 8.98596 16.7125 8.75117 16.8856 8.57806C17.0587 8.40495 17.2935 8.30769 17.5383 8.30769H23.0768C23.3216 8.30769 23.5564 8.40495 23.7295 8.57806C23.9026 8.75117 23.9998 8.98596 23.9998 9.23077V14.7692C23.9998 15.014 23.9026 15.2488 23.7295 15.4219C23.5564 15.5951 23.3216 15.6923 23.0768 15.6923ZM18.4614 13.8462H22.1537V10.1538H18.4614V13.8462Z" fill="#06623B"/>
<path d="M23.0768 24H17.5383C17.2935 24 17.0587 23.9028 16.8856 23.7296C16.7125 23.5565 16.6152 23.3217 16.6152 23.0769V17.5385C16.6152 17.2936 16.7125 17.0589 16.8856 16.8857C17.0587 16.7126 17.2935 16.6154 17.5383 16.6154H23.0768C23.3216 16.6154 23.5564 16.7126 23.7295 16.8857C23.9026 17.0589 23.9998 17.2936 23.9998 17.5385V23.0769C23.9998 23.3217 23.9026 23.5565 23.7295 23.7296C23.5564 23.9028 23.3216 24 23.0768 24ZM18.4614 22.1538H22.1537V18.4615H18.4614V22.1538Z" fill="#06623B"/>
</g>
<defs>
<clipPath id="clip0_164_2925">
<rect width="24" height="24" fill="white"/>
</clipPath>
</defs>
</svg>
