<svg width="24" height="24" viewBox="0 0 24 24" fill="none" xmlns="http://www.w3.org/2000/svg">
<path d="M21.8672 3.92343L12.8672 0.173428C12.593 0.0596997 12.2991 0.00115967 12.0023 0.00115967C11.7055 0.00115967 11.4117 0.0596997 11.1375 0.173428L2.1375 3.92343C1.29844 4.2703 0.75 5.09062 0.75 5.99999C0.75 15.3047 6.11719 21.7359 11.1328 23.8266C11.6859 24.0562 12.3094 24.0562 12.8625 23.8266C16.8797 22.1531 23.25 16.3734 23.25 5.99999C23.25 5.09062 22.7016 4.2703 21.8672 3.92343ZM12.2906 22.4437C12.1031 22.5187 11.8969 22.5187 11.7141 22.4437C7.125 20.625 2.25 14.25 2.25 5.99999C2.25 5.6953 2.43281 5.42343 2.70937 5.30624L11.7094 1.55624C11.8922 1.48124 12.1031 1.48124 12.2859 1.55624L21.2859 5.30624C21.5672 5.42343 21.75 5.6953 21.7453 5.99999C21.75 14.25 16.875 20.625 12.2906 22.4437ZM12 19.2656V4.68749L5.31094 7.47655C5.78438 13.1062 8.925 17.5547 12 19.2656ZM10.5 16.1344C8.79375 14.2641 7.41562 11.55 6.93281 8.42343L10.5 6.93749V16.1344Z" fill="#232323"/>
</svg>
