<svg width="26" height="21" viewBox="0 0 26 21" fill="none" xmlns="http://www.w3.org/2000/svg">
<g clip-path="url(#clip0_172_4093)">
<path d="M11.375 7.79999C11.5537 7.79999 11.7 7.65374 11.7 7.47499V6.82499C11.7 6.64624 11.5537 6.49999 11.375 6.49999H1.625C1.44625 6.49999 1.3 6.64624 1.3 6.82499V7.47499C1.3 7.65374 1.44625 7.79999 1.625 7.79999H11.375ZM25.675 15.6H24.7V11.2084C24.7 10.5259 24.4237 9.85561 23.9362 9.37217L20.5278 5.96374C20.0484 5.47624 19.3781 5.19999 18.6916 5.19999H16.9V3.19311C16.9 2.14905 15.9981 1.29999 14.8931 1.29999H4.60687C3.50187 1.29999 2.6 2.14905 2.6 3.19311V3.89999H0.325C0.14625 3.89999 0 4.04624 0 4.22499V4.87499C0 5.05374 0.14625 5.19999 0.325 5.19999H10.075C10.2537 5.19999 10.4 5.05374 10.4 4.87499V4.22499C10.4 4.04624 10.2537 3.89999 10.075 3.89999H3.9V3.19311C3.9 2.86405 4.21687 2.59999 4.60687 2.59999H14.8931C15.2831 2.59999 15.6 2.86405 15.6 3.19311V15.6H8.43375C7.84062 14.8159 6.90625 14.3 5.85 14.3C5.11469 14.3 4.44437 14.5519 3.9 14.9662V11.7H2.6V17.55C2.6 19.3456 4.05437 20.8 5.85 20.8C7.64562 20.8 9.1 19.3456 9.1 17.55C9.1 17.3265 9.07562 17.1112 9.035 16.9H16.965C16.9203 17.1112 16.9 17.3265 16.9 17.55C16.9 19.3456 18.3544 20.8 20.15 20.8C21.9456 20.8 23.4 19.3456 23.4 17.55C23.4 17.3265 23.3756 17.1112 23.335 16.9H25.675C25.8537 16.9 26 16.7537 26 16.575V15.925C26 15.7462 25.8537 15.6 25.675 15.6ZM5.85 19.5C4.77344 19.5 3.9 18.6265 3.9 17.55C3.9 16.4734 4.77344 15.6 5.85 15.6C6.92656 15.6 7.8 16.4734 7.8 17.55C7.8 18.6265 6.92656 19.5 5.85 19.5ZM16.9 6.49999H18.6916C19.0328 6.49999 19.37 6.63811 19.6097 6.88186L23.0181 10.2903C23.0506 10.3228 23.0628 10.3675 23.0913 10.4041H16.9V6.49999ZM20.15 19.5C19.0734 19.5 18.2 18.6265 18.2 17.55C18.2 16.4734 19.0734 15.6 20.15 15.6C21.2266 15.6 22.1 16.4734 22.1 17.55C22.1 18.6265 21.2266 19.5 20.15 19.5ZM23.4 15.6H22.7337C22.1406 14.8159 21.2062 14.3 20.15 14.3C19.0937 14.3 18.1594 14.8159 17.5662 15.6H16.9V11.7H23.4V15.6ZM10.4 10.075V9.42499C10.4 9.24624 10.2537 9.09999 10.075 9.09999H0.325C0.14625 9.09999 0 9.24624 0 9.42499V10.075C0 10.2537 0.14625 10.4 0.325 10.4H10.075C10.2537 10.4 10.4 10.2537 10.4 10.075Z" fill="#232323"/>
</g>
<defs>
<clipPath id="clip0_172_4093">
<rect width="26" height="20.8" fill="white"/>
</clipPath>
</defs>
</svg>
