<svg width="16" height="14" viewBox="0 0 16 14" fill="none" xmlns="http://www.w3.org/2000/svg">
<path d="M15.363 3.37483L15.3666 3.37003C15.6776 3.00801 15.8319 2.53729 15.7958 2.06144C15.7597 1.58558 15.536 1.14357 15.174 0.832628C14.9948 0.678666 14.7869 0.561519 14.5624 0.487875C14.3379 0.41423 14.101 0.385531 13.8654 0.403416C13.3896 0.439535 12.9476 0.663208 12.6366 1.02523L5.50261 9.15763L3.27301 6.92683C3.10589 6.75971 2.90749 6.62714 2.68914 6.5367C2.47078 6.44625 2.23676 6.3997 2.00041 6.3997C1.76407 6.3997 1.53004 6.44625 1.31169 6.5367C1.09333 6.62714 0.894932 6.75971 0.727812 6.92683C0.560692 7.09395 0.428124 7.29235 0.33768 7.5107C0.247235 7.72906 0.200684 7.96308 0.200684 8.19943C0.200684 8.43577 0.247235 8.6698 0.33768 8.88815C0.428124 9.10651 0.560692 9.30491 0.727812 9.47203L4.32661 13.072C4.67341 13.42 5.13661 13.6 5.64661 13.5988H5.66941C5.91691 13.5892 6.15975 13.5286 6.38275 13.4208C6.60575 13.313 6.80411 13.1604 6.96541 12.9724L15.363 3.37483Z" fill="#06623B"/>
</svg>
