<svg width="32" height="32" viewBox="0 0 32 32" fill="none" xmlns="http://www.w3.org/2000/svg">
<g clip-path="url(#clip0_112_842)">
<path d="M30.3029 15.1885V14.1626C30.3029 10.3948 28.8256 6.84253 26.143 4.15991C23.4606 1.47729 19.9081 0 16.1403 0C8.76991 0 2.56629 5.75635 2.01722 13.105C1.99769 13.3647 2.19251 13.5908 2.45228 13.6101C2.71278 13.6299 2.93787 13.4348 2.9574 13.1753C3.46986 6.31592 9.26063 0.942871 16.1403 0.942871C19.6564 0.942871 22.9721 2.32202 25.4764 4.82642C27.9808 7.33081 29.3602 10.6465 29.3602 14.1626V14.6187C28.9816 14.4502 28.5753 14.333 28.1503 14.2764V14.1626C28.1503 11.4387 27.2548 8.87061 25.5609 6.73608C25.3993 6.53198 25.1027 6.4978 24.8986 6.65967C24.6947 6.82153 24.6605 7.11816 24.8224 7.32202C26.3827 9.28809 27.2074 11.6536 27.2074 14.1626V14.2358H26.0209V13.8C26.0209 13.0203 25.3866 12.3857 24.6068 12.3857H23.8024C23.0226 12.3857 22.3883 13.0203 22.3883 13.8V23.3132C22.3883 24.093 23.0226 24.7273 23.8024 24.7273H24.6068C25.3866 24.7273 26.0209 24.093 26.0209 23.3132V23.116H27.5599C30.0082 23.116 31.9999 21.1243 31.9999 18.6758C31.9999 17.2627 31.3351 16.0022 30.3029 15.1885ZM25.0783 23.3132C25.0783 23.5732 24.8668 23.7847 24.6068 23.7847H23.8024C23.5424 23.7847 23.3309 23.5732 23.3309 23.3132V13.8C23.3309 13.54 23.5424 13.3286 23.8024 13.3286H24.6068C24.8668 13.3286 25.0783 13.54 25.0783 13.8V23.3132ZM27.5599 22.1733H26.0319V15.1787H27.5599C29.4884 15.1787 31.0573 16.7476 31.0573 18.676C31.057 20.6045 29.4884 22.1733 27.5599 22.1733Z" fill="#06623B"/>
<path d="M18.9314 27.1865H14.5505C13.8213 27.1865 13.2195 27.7412 13.1443 28.4507H7.9707C6.03711 28.4507 4.46387 26.8777 4.46387 24.9438V23.1162H5.979V23.3132C5.979 24.093 6.61328 24.7275 7.39307 24.7275H8.19751C8.97729 24.7275 9.61157 24.093 9.61157 23.3132V17.2014C9.61157 16.9409 9.40063 16.73 9.14014 16.73C8.87988 16.73 8.66895 16.9409 8.66895 17.2014V23.3132C8.66895 23.5732 8.45752 23.7847 8.19751 23.7847H7.39307C7.13306 23.7847 6.92163 23.5732 6.92163 23.3132V13.8C6.92163 13.54 7.13306 13.3286 7.39307 13.3286H8.19751C8.45752 13.3286 8.66895 13.54 8.66895 13.8V15.3157C8.66895 15.5762 8.87988 15.7871 9.14014 15.7871C9.40063 15.7871 9.61157 15.5762 9.61157 15.3157V13.8C9.61157 13.0203 8.97729 12.386 8.19751 12.386H7.39307C6.61328 12.386 5.979 13.0203 5.979 13.8V14.2361H5.07324V14.1626C5.07324 11.2217 6.22876 8.44678 8.32666 6.34888C10.4243 4.25098 13.1995 3.0957 16.1404 3.0957C18.9321 3.0957 21.6018 4.14917 23.6575 6.0625C23.8481 6.23975 24.1462 6.229 24.3237 6.03857C24.5012 5.8479 24.4905 5.5498 24.2998 5.37231C22.0691 3.29614 19.1714 2.15283 16.1404 2.15283C12.9478 2.15283 9.93579 3.40625 7.65991 5.68213C5.38403 7.95801 4.13062 10.97 4.13062 14.1626V14.248C1.82642 14.4075 0 16.332 0 18.676C0 20.8093 1.51245 22.5955 3.521 23.0198V24.9438C3.521 27.3975 5.51709 29.3936 7.9707 29.3936H13.1362V29.52C13.1362 30.2998 13.7708 30.9341 14.5505 30.9341H18.9314C19.7109 30.9341 20.3455 30.2998 20.3455 29.52V28.6006C20.3455 27.8208 19.7112 27.1865 18.9314 27.1865ZM0.942871 18.676C0.942871 16.7476 2.51172 15.1787 4.43994 15.1787H5.96802V22.1733H4.43994C2.51172 22.1733 0.942871 20.6045 0.942871 18.676ZM19.4028 29.52C19.4028 29.78 19.1914 29.9915 18.9314 29.9915H14.5505C14.2905 29.9915 14.0791 29.78 14.0791 29.52V28.6006C14.0791 28.3406 14.2905 28.1292 14.5505 28.1292H18.9314C19.1914 28.1292 19.4028 28.3406 19.4028 28.6006V29.52Z" fill="#06623B"/>
</g>
<defs>
<clipPath id="clip0_112_842">
<rect width="32" height="32" fill="white"/>
</clipPath>
</defs>
</svg>
